<svg width="170" height="53" viewBox="0 0 170 53" fill="none" xmlns="http://www.w3.org/2000/svg">
<path d="M73.5107 24.919L75.6502 16.7152H85.5475L83.912 22.9859L73.5112 24.919H73.5107ZM77.6816 19.3626L77.109 21.5581L81.7894 20.6883L82.135 19.3626H77.6816Z" fill="black"/>
<path d="M63.2021 42.8128H53.3424L57.0206 28.6826L57.9321 24.2727H67.6343L67.42 25.2263C69.5928 24.0798 71.7469 24.1238 72.8902 24.147L74.601 24.1815L72.5278 31.972L71.4366 31.8865C71.2096 31.8685 71.0304 31.8534 70.8795 31.8401C70.5072 31.808 70.353 31.7948 70.0512 31.7948C66.5122 31.7948 65.5865 33.6711 65.2001 35.0866L63.2026 42.8119L63.2021 42.8128ZM61.1665 40.1654L62.6582 34.3968C62.6634 34.3779 62.6685 34.359 62.6737 34.3396L64.3403 26.9202H60.0735L59.5841 29.2877L56.7526 40.1654H61.1665ZM71.1687 26.8389C69.661 26.9944 67.8031 27.583 66.3166 29.6622L66.0849 29.9865C67.1929 29.4291 68.52 29.1478 70.0512 29.1478C70.2444 29.1478 70.3996 29.1525 70.5505 29.1606L71.1687 26.8384V26.8389Z" fill="black"/>
<path d="M78.7324 42.8128H68.836L73.6721 24.2741H83.5689L78.7324 42.8128ZM76.7015 40.1654L80.1563 26.9215H75.7029L72.2481 40.1654H76.7015Z" fill="black"/>
<path d="M101.699 42.8123H91.8076L94.6062 32.0122C94.6758 31.7631 94.7928 31.3466 94.8163 30.9863C94.8342 30.7116 94.7905 30.5745 94.7623 30.5367C94.7214 30.4824 94.4732 30.341 93.8263 30.341C92.3595 30.341 91.4357 31.1154 91.0032 32.709L91.0023 32.7128L88.3828 42.8123H78.5241L82.2032 28.6821L83.1147 24.2736H93.0304L92.8738 24.9298C94.1445 24.3441 95.773 23.9257 97.8871 23.9257C99.3769 23.9257 100.596 24.1053 101.616 24.4755C102.616 24.8386 103.408 25.3889 103.969 26.1112C105.502 28.0874 104.846 30.7192 104.494 32.1332L104.477 32.2032L101.701 42.8128L101.699 42.8123ZM95.2141 40.1649H99.6698L101.927 31.5366L101.939 31.4893C102.216 30.3774 102.635 28.6968 101.892 27.7394C101.3 26.9764 99.9147 26.5727 97.8862 26.5727C95.7533 26.5727 94.311 27.0605 93.2433 27.7191C93.4333 27.7021 93.6274 27.6931 93.8253 27.6931C95.2173 27.6931 96.2384 28.112 96.8604 28.9383C97.8335 30.2304 97.3714 31.9035 97.1429 32.7176L95.2131 40.1644L95.2141 40.1649ZM81.9343 40.1649H86.3482L88.4632 32.0113C88.4853 31.9304 88.5083 31.85 88.5323 31.7711L89.6902 26.9206H85.2556L84.7662 29.2872L81.9343 40.1649Z" fill="black"/>
<path d="M111.716 43.0652C108.181 43.0652 106.235 42.4932 105.21 41.152C104.183 39.8084 104.459 38.0947 104.814 36.7511L106.359 30.7835H103.12L104.764 24.336H108.136L108.748 22.0417L118.851 20.164L117.76 24.3365H122.29L120.649 30.784H116.024L114.852 35.2889L114.844 35.3243C114.759 35.6812 114.651 36.1379 114.616 36.4216C114.788 36.4561 115.097 36.4934 115.624 36.4934C116.187 36.4934 116.47 36.4934 117.277 36.406L119.173 36.2008L117.497 42.661L116.612 42.7721C115.629 42.8955 114.282 43.0648 111.715 43.0648L111.716 43.0652ZM106.513 28.1361H109.765L107.359 37.429C107.07 38.5235 107.05 39.2132 107.298 39.5385C107.549 39.867 108.457 40.4178 111.716 40.4178C113.434 40.4178 114.564 40.3374 115.403 40.2495L115.691 39.1409H115.625C114.897 39.1409 114.343 39.0856 113.882 38.9669C113.263 38.8076 112.784 38.5159 112.456 38.0989C111.707 37.1444 111.987 35.9621 112.283 34.7107L112.302 34.6331L113.992 28.1365H118.606L118.9 26.9839H114.347L115.251 23.5257L110.862 24.3417L110.157 26.9839H106.807L106.514 28.1365L106.513 28.1361Z" fill="black"/>
<path d="M127.207 43.1612C123.039 43.1612 120.142 42.132 118.595 40.102C117.323 38.4327 117.042 36.223 117.761 33.5345C118.539 30.5197 120.085 28.1469 122.358 26.4833C124.733 24.7435 127.811 23.8618 131.507 23.8618C134.255 23.8618 136.352 24.3029 137.919 25.2111C139.32 26.0228 140.285 27.2194 140.789 28.7686C141.419 30.5192 141.158 32.3303 140.447 35.0265H140.587L140.167 36.0741L140.15 36.137H140.142L139.859 36.8442C139.404 37.9803 138.702 38.9915 137.772 39.8495C136.932 40.6249 135.9 41.2787 134.707 41.7921C132.627 42.687 130.033 43.1607 127.205 43.1612H127.207ZM131.507 26.5093C125.477 26.5093 121.604 29.1704 120.308 34.2043L120.305 34.2166C119.808 36.0708 119.936 37.5094 120.684 38.4918C121.692 39.8146 123.948 40.5138 127.206 40.5138C129.681 40.5133 131.917 40.1133 133.673 39.3579C134.716 38.9088 135.569 38.3457 136.225 37.6734H132.757C132.359 38.2946 131.82 38.8109 131.169 39.1915C130.293 39.703 129.247 39.9625 128.059 39.9625C126.489 39.9625 125.327 39.4983 124.606 38.5825C123.498 37.1775 123.937 35.3007 124.102 34.5944L124.12 34.5154L124.355 33.4891H138.119C138.576 31.564 138.62 30.5079 138.309 29.655L138.293 29.6068C138.02 28.7596 137.296 26.5088 131.507 26.5088V26.5093ZM126.51 36.1365C126.492 36.4481 126.523 36.7535 126.669 36.9383C126.857 37.1775 127.364 37.3151 128.059 37.3151C129.565 37.3151 130.274 36.7246 130.606 36.1365H126.51ZM134.347 32.9378H124.456L125.094 31.164C125.248 30.7334 125.611 29.7254 126.446 28.7974C127.506 27.6203 128.961 26.9981 130.656 26.9981C132.099 26.9981 133.186 27.4212 133.884 28.2552C134.935 29.5108 134.655 31.1428 134.535 31.8396L134.346 32.9378H134.347ZM128.685 30.2904H132.003C131.98 30.1585 131.939 30.0427 131.871 29.9604C131.703 29.7604 131.261 29.6456 130.656 29.6456C129.778 29.6456 129.149 29.9042 128.685 30.2904Z" fill="black"/>
<path d="M147.346 42.8137H137.487L141.163 28.6816L142.076 24.2741H151.778L151.564 25.2267C153.736 24.0807 155.889 24.1247 157.033 24.1483L158.745 24.1828L156.673 31.9715L155.583 31.8874C155.352 31.8694 155.171 31.8543 155.019 31.841C154.65 31.8094 154.496 31.7966 154.196 31.7966C150.656 31.7966 149.73 33.6725 149.344 35.0875L147.346 42.8137ZM140.897 40.1663H145.31L146.803 34.3972C146.811 34.3656 146.82 34.3344 146.829 34.3032L148.486 26.922H144.218L143.728 29.2872L140.897 40.1668L140.897 40.1663ZM155.313 26.8397C153.805 26.9948 151.947 27.5829 150.462 29.6621L150.23 29.9869C151.337 29.43 152.664 29.1492 154.196 29.1492C154.389 29.1492 154.544 29.1534 154.695 29.1619L155.313 26.8397Z" fill="black"/>
<path d="M28.3276 49.1846L33.8924 27.8789C34.1138 26.897 34.2069 26.4209 34.2751 26.0725C34.3272 25.8054 34.3686 25.5941 34.4396 25.2929L34.6798 24.2746H44.4596L44.3176 24.9015C45.8121 24.2127 47.4933 23.8633 49.3201 23.8633C50.1673 23.8633 51.4507 23.9579 52.7538 24.4089C54.1111 24.8783 55.1857 25.6215 55.9483 26.619C57.2726 28.3507 57.5593 30.6876 56.8001 33.5652C55.984 36.7039 54.2883 39.2468 51.8954 40.919C49.825 42.3656 47.3268 43.1305 44.6702 43.1305C42.9543 43.1305 41.5021 42.8001 40.3536 42.1481C40.2883 42.1108 40.2244 42.073 40.1623 42.0347L38.7985 47.2383L28.3286 49.1856L28.3276 49.1846ZM36.7911 26.922C36.7225 27.2638 36.6242 27.7347 36.455 28.4864L36.4442 28.5299L31.9273 45.8233L36.6773 44.9402L38.8446 36.6708L40.4782 38.7764C40.9408 39.373 41.8025 40.4831 44.6693 40.4831C46.7561 40.4831 48.7884 39.8657 50.3925 38.7452C52.2903 37.4191 53.5892 35.4501 54.253 32.893L54.2544 32.8878C54.7937 30.8455 54.6611 29.2797 53.861 28.2335C53.4651 27.7158 52.2297 26.5117 49.3192 26.5117C47.6522 26.5117 46.3796 26.8601 45.4116 27.3069C45.5978 27.2908 45.7863 27.2828 45.9781 27.2828C46.9475 27.2828 48.2863 27.5196 49.1598 28.6467C50.0112 29.7458 50.179 31.3546 49.6581 33.4286L49.6558 33.4371C49.2303 35.0851 48.607 36.423 47.8031 37.4139C46.6508 38.8341 45.0872 39.5848 43.281 39.5848C42.2929 39.5848 40.9295 39.3409 40.0471 38.1789C38.9565 36.7426 39.2009 34.6842 39.6 33.2055C39.6734 32.9123 39.8351 32.2751 40.1524 31.5243L40.1035 31.5678L41.1575 26.9235H36.7906L36.7911 26.922ZM45.9786 29.9292C44.7962 29.9292 43.8734 30.436 43.1579 31.4789C42.5124 32.4193 42.2402 33.5061 42.1504 33.8631L42.1438 33.8881C41.8124 35.1097 41.811 36.1375 42.1401 36.5705C42.3244 36.8131 42.7084 36.9365 43.282 36.9365C43.9622 36.9365 46.0312 36.9365 47.1073 32.7748C47.4002 31.6056 47.3912 30.6705 47.0833 30.2729C46.907 30.0451 46.5352 29.9297 45.979 29.9297L45.9786 29.9292Z" fill="black"/>
<path d="M18.7025 43.1337C18.2409 43.1337 17.7736 43.1229 17.2993 43.1011C14.4457 42.9688 9.33458 42.3064 7.13445 39.3654C6.46782 38.5055 6.07105 37.5112 5.95634 36.4107C5.79744 35.0193 6.10772 33.8058 6.30751 33.2058L6.60839 32.3019H14.9581C13.48 31.8774 10.9828 31.0222 9.79388 28.8418C9.07649 27.5266 8.97964 25.9869 9.50617 24.266C10.2071 21.9911 11.9249 20.0126 14.3432 18.6927C17.0473 17.2158 20.4885 16.5629 24.571 16.7515C27.4655 16.8839 29.7075 17.3217 31.4257 18.0894C34.4298 19.4307 35.7179 21.7812 35.1504 24.8872C35.0926 25.2229 35.0146 25.5694 34.9121 25.9462L34.6469 26.9205H26.1981C28.5947 27.5829 31.5136 28.4286 32.7641 30.73C33.4684 32.0258 33.5426 33.5959 32.9841 35.3957C32.1473 38.1395 30.1066 40.2868 27.0819 41.6053C24.7736 42.6118 21.8989 43.1337 18.7025 43.1337ZM8.59462 34.9494C8.5462 35.2921 8.52363 35.694 8.57253 36.1133L8.57441 36.1298C8.6374 36.7435 8.84754 37.2716 9.21564 37.7443L9.23398 37.768C10.3477 39.2652 13.4081 40.2703 17.4205 40.4565C20.78 40.6116 23.7591 40.1686 26.0349 39.1768C28.3643 38.1608 29.856 36.6267 30.4686 34.6166L30.4709 34.6095C30.8141 33.5051 30.8085 32.6513 30.4545 31.9998C29.7131 30.6355 27.395 29.9963 25.35 29.4318H25.349L20.5468 28.1024C19.7274 27.8684 18.3561 27.477 17.7191 26.2748C17.4732 25.8105 17.2508 25.0394 17.5841 23.998C17.8902 22.9995 18.6504 22.1414 19.726 21.5803C20.7273 21.0579 21.943 20.8139 23.241 20.874C24.3872 20.9269 25.2799 21.1732 25.9705 21.6276L26.0114 21.655C26.0152 21.6573 26.0185 21.6597 26.0222 21.6621L26.0307 21.6677C26.0641 21.6904 26.0956 21.7141 26.1271 21.7382L26.1576 21.7614C26.9352 22.3627 27.3461 23.2307 27.3475 24.2731H32.585C32.7063 23.5143 32.6579 22.8856 32.4374 22.3547C32.1229 21.5973 31.4426 20.9936 30.3581 20.509C28.9647 19.8864 26.9775 19.512 24.452 19.3966C20.9055 19.2326 17.8446 19.7937 15.5993 21.0191C13.7884 22.0077 12.5182 23.4377 12.0222 25.0465C11.7096 26.0691 11.7355 26.895 12.1031 27.5687C12.8712 28.9775 15.0211 29.5741 16.0539 29.8606L22.36 31.6075C24.0355 32.0797 24.5837 32.7827 24.8498 33.2701C25.2047 33.9192 25.2531 34.687 24.9941 35.5531L24.9884 35.5715C24.2809 37.8166 22.0206 39.0141 18.7862 38.8577C16.6543 38.7593 15.172 38.1306 14.3845 36.9884C13.9191 36.3133 13.7786 35.5904 13.7814 34.9494H8.59462ZM16.9725 32.8617L16.5964 34.0327C16.5142 34.2894 16.2636 35.0699 16.5466 35.4803C16.6801 35.6741 17.178 36.1336 18.9085 36.2135C19.6635 36.2504 20.3315 36.1927 20.8956 36.0429C22.0422 35.7384 22.3469 35.1791 22.4743 34.7811C22.5119 34.653 22.5222 34.575 22.5246 34.5343C22.4583 34.4771 22.2387 34.3234 21.6511 34.1575L16.9725 32.8617ZM21.2604 25.5543L24.1531 26.3547L24.5287 25.1751C24.7684 24.4225 24.7774 24.0415 24.5574 23.8646C24.5508 23.8594 24.5437 23.8542 24.5371 23.849C24.5301 23.8443 24.5226 23.8391 24.515 23.8339C24.3482 23.7285 23.9528 23.5569 23.1197 23.5186C21.8396 23.4595 20.3602 23.9152 20.0988 24.7804L20.0908 24.8054C20.0504 24.9298 20.0447 25.0059 20.0461 25.0352C20.0654 25.0588 20.1425 25.1383 20.3668 25.2451C20.6272 25.369 20.9506 25.4659 21.2604 25.5543Z" fill="black"/>
<path d="M76.6663 18.0388L75.3101 23.2382L82.8507 21.8369L83.8417 18.0388H76.6663Z" fill="#93FB1D"/>
<path d="M72.8949 25.4716C71.2538 25.4385 67.782 25.3444 65.2476 28.8896L65.9875 25.5969H59.0031L58.3026 28.9856L55.048 41.4896H62.1843L63.928 34.7466C64.3929 33.0381 65.6627 30.4724 70.0512 30.4724C70.5481 30.4724 70.739 30.5055 71.5391 30.5684L72.8954 25.4726L72.8949 25.4716Z" fill="white"/>
<path d="M74.6875 25.5977L70.5425 41.489H77.717L81.8624 25.5977H74.6875Z" fill="white"/>
<path d="M97.8867 25.2489C93.9175 25.2489 91.9647 26.8312 90.7781 28.0353L91.3601 25.5968H84.1848L83.4843 28.9841L80.2288 41.4881H87.3651L89.7298 32.3705C89.8844 31.8022 90.6206 29.0163 93.8259 29.0163C96.7641 29.0163 96.1835 31.2633 95.8732 32.3705L93.5109 41.4881H100.685L103.203 31.8651C103.747 29.68 104.91 25.2484 97.8867 25.2484" fill="white"/>
<path d="M113.575 34.9678L115.008 29.4602H119.627L120.595 25.6602H116.053L117.05 21.845L109.804 23.1919L109.146 25.6602H105.785L104.816 29.4602H108.061L106.086 37.0891C105.274 40.1591 105.99 41.7419 111.715 41.7419C114.157 41.7419 115.457 41.584 116.448 41.4592L117.417 37.7221C116.539 37.8171 116.196 37.8171 115.623 37.8171C112.875 37.8171 113.109 36.9307 113.574 34.9678" fill="white"/>
<path d="M130.656 28.3223C133.788 28.3223 133.395 30.7045 133.239 31.6146H126.332C126.603 30.8619 127.528 28.3223 130.656 28.3223ZM139.142 34.8128C139.877 32.0528 140.036 30.548 139.545 29.1997C138.829 26.9735 136.852 25.1855 131.508 25.1855C124.449 25.1855 120.391 28.6045 119.034 33.8724C117.64 39.077 120.529 41.8375 127.207 41.8375C132.169 41.836 137.058 40.301 138.639 36.3502H131.961C131.382 37.8237 129.967 38.6393 128.06 38.6393C124.397 38.6393 125.209 35.6609 125.403 34.8132H139.142L139.142 34.8128Z" fill="white"/>
<path d="M149.393 28.8895L150.132 25.5977H143.147L142.446 28.984L139.192 41.4894H146.328L148.072 34.7455C148.536 33.0365 149.806 30.4723 154.196 30.4723C154.693 30.4723 154.882 30.5054 155.684 30.5668L157.04 25.4715C155.399 25.4384 151.926 25.3429 149.393 28.8886" fill="white"/>
<path d="M48.3822 33.1027C47.7664 35.4873 46.4355 38.2595 43.2819 38.2595C39.8459 38.2595 40.5285 34.8127 40.874 33.5395C41.1048 32.6172 42.1429 28.6054 45.9785 28.6054C49.1598 28.6054 48.7654 31.5781 48.3822 33.1032M49.3196 25.1869C45.2757 25.1869 43.1879 27.0533 42.2989 27.8447L42.8085 25.5982H35.7202C35.5636 26.2614 35.5636 26.4529 35.1711 28.1931L30.1272 47.5034L37.7374 46.0879L39.4406 39.5894C40.0541 40.3803 41.2416 41.8052 44.6697 41.8052C49.0611 41.8052 53.9239 39.3989 55.527 33.2256C57.2486 26.7049 52.555 25.1859 49.3196 25.1859" fill="white"/>
<path d="M25.6978 28.1553L20.9059 26.8292C19.8486 26.5276 18.3052 26.0463 18.8393 24.396C19.2436 23.0571 20.9675 22.0941 23.1798 22.1967C24.1539 22.2416 24.8111 22.4472 25.2493 22.7356C25.2615 22.7451 25.2747 22.7527 25.2864 22.7607C25.3099 22.7768 25.3311 22.7943 25.3541 22.8113C26.4166 23.6334 25.9535 25.0413 25.7763 25.5972H33.6418C33.7226 25.2994 33.7978 24.9831 33.8543 24.655C34.1725 22.9224 33.9821 20.6796 30.8911 19.2996C29.461 18.6605 27.4128 18.2076 24.5107 18.0747C16.2762 17.6932 11.8863 21.012 10.7637 24.6546C9.32511 29.358 13.9285 30.6444 15.7027 31.1365L22.0036 32.8815C23.7388 33.3708 24.0496 34.1116 23.7327 35.171C22.9283 37.723 19.497 37.5665 18.8487 37.5348C14.3234 37.3263 15.013 34.6571 15.3444 33.6251H7.55607C7.34169 34.2695 7.14613 35.2382 7.26506 36.2655C7.34216 37.0148 7.5965 37.8123 8.17991 38.5602C9.97903 40.9793 14.5006 41.6459 17.3598 41.7788C24.2606 42.0969 30.2001 40.0182 31.727 35.0041C33.2069 30.2383 29.1315 29.1027 25.6982 28.1553" fill="white"/>
<defs>
<clipPath id="clip0_18267_5786">
<rect width="71.6823" height="49.8462" fill="white" transform="translate(157.084 3.08411)"/>
</clipPath>
</defs>
</svg>
